<?xml version="1.0" encoding="UTF-8" standalone="no"?>
<!DOCTYPE svg PUBLIC "-//W3C//DTD SVG 1.1//EN"
 "http://www.w3.org/Graphics/SVG/1.1/DTD/svg11.dtd">
<!-- Generated by graphviz version 2.43.0 (0)
 -->
<!-- Title: CFG for &#39;test&#39; function Pages: 1 -->
<svg width="833pt" height="1289pt"
 viewBox="0.00 0.00 833.00 1289.00" xmlns="http://www.w3.org/2000/svg" xmlns:xlink="http://www.w3.org/1999/xlink">
<g id="graph0" class="graph" transform="scale(1 1) rotate(0) translate(4 1285)">
<title>CFG for &#39;test&#39; function</title>
<polygon fill="white" stroke="transparent" points="-4,4 -4,-1285 829,-1285 829,4 -4,4"/>
<text text-anchor="middle" x="412.5" y="-7.8" font-family="Times,serif" font-size="14.00">CFG for &#39;test&#39; function</text>
<!-- Node0x55a5a8a76f30 -->
<g id="node1" class="node">
<title>Node0x55a5a8a76f30</title>
<polygon fill="#f4987a" fill-opacity="0.439216" stroke="#3d50c3" points="314,-1099.5 314,-1280.5 685,-1280.5 685,-1099.5 314,-1099.5"/>
<text text-anchor="start" x="322" y="-1265.3" font-family="Courier,monospace" font-size="14.00">2:</text>
<polyline fill="none" stroke="#3d50c3" points="314,-1257.5 685,-1257.5 "/>
<text text-anchor="start" x="322" y="-1242.3" font-family="Courier,monospace" font-size="14.00">%3 = alloca ptr, align 8</text>
<text text-anchor="start" x="322" y="-1227.3" font-family="Courier,monospace" font-size="14.00"> %4 = alloca i32, align 4</text>
<text text-anchor="start" x="322" y="-1212.3" font-family="Courier,monospace" font-size="14.00"> %5 = alloca double, align 8</text>
<text text-anchor="start" x="322" y="-1197.3" font-family="Courier,monospace" font-size="14.00"> %6 = alloca i32, align 4</text>
<text text-anchor="start" x="322" y="-1182.3" font-family="Courier,monospace" font-size="14.00"> %7 = alloca double, align 8</text>
<text text-anchor="start" x="322" y="-1167.3" font-family="Courier,monospace" font-size="14.00"> store ptr %0, ptr %3, align 8</text>
<text text-anchor="start" x="322" y="-1152.3" font-family="Courier,monospace" font-size="14.00"> store i32 %1, ptr %4, align 4</text>
<text text-anchor="start" x="322" y="-1137.3" font-family="Courier,monospace" font-size="14.00"> store double 0.000000e+00, ptr %5, align 8</text>
<text text-anchor="start" x="322" y="-1122.3" font-family="Courier,monospace" font-size="14.00"> store i32 0, ptr %6, align 4</text>
<text text-anchor="start" x="322" y="-1107.3" font-family="Courier,monospace" font-size="14.00"> br label %8</text>
</g>
<!-- Node0x55a5a8a76950 -->
<g id="node2" class="node">
<title>Node0x55a5a8a76950</title>
<polygon fill="#b70d28" fill-opacity="0.439216" stroke="#b70d28" points="318,-948.5 318,-1062.5 681,-1062.5 681,-948.5 318,-948.5"/>
<text text-anchor="start" x="326" y="-1047.3" font-family="Courier,monospace" font-size="14.00">8:</text>
<polyline fill="none" stroke="#b70d28" points="318,-1039.5 681,-1039.5 "/>
<text text-anchor="start" x="326" y="-1024.3" font-family="Courier,monospace" font-size="14.00">%9 = load i32, ptr %6, align 4</text>
<text text-anchor="start" x="326" y="-1009.3" font-family="Courier,monospace" font-size="14.00"> %10 = load i32, ptr %4, align 4</text>
<text text-anchor="start" x="326" y="-994.3" font-family="Courier,monospace" font-size="14.00"> %11 = icmp ult i32 %9, %10</text>
<text text-anchor="start" x="326" y="-979.3" font-family="Courier,monospace" font-size="14.00"> br i1 %11, label %12, label %50, !prof !4</text>
<polyline fill="none" stroke="#b70d28" points="318,-971.5 681,-971.5 "/>
<text text-anchor="middle" x="408.5" y="-956.3" font-family="Courier,monospace" font-size="14.00">T</text>
<polyline fill="none" stroke="#b70d28" points="499,-948.5 499,-971.5 "/>
<text text-anchor="middle" x="590" y="-956.3" font-family="Courier,monospace" font-size="14.00">F</text>
</g>
<!-- Node0x55a5a8a76f30&#45;&gt;Node0x55a5a8a76950 -->
<g id="edge1" class="edge">
<title>Node0x55a5a8a76f30&#45;&gt;Node0x55a5a8a76950</title>
<g id="a_edge1"><a xlink:title="2 &#45;&gt; 8&#10;Probability 100.00%">
<path fill="none" stroke="black" d="M499.5,-1099.35C499.5,-1090.35 499.5,-1081.32 499.5,-1072.62"/>
<polygon fill="black" stroke="black" points="503,-1072.59 499.5,-1062.59 496,-1072.59 503,-1072.59"/>
</a>
</g>
</g>
<!-- Node0x55a5a8a77110 -->
<g id="node3" class="node">
<title>Node0x55a5a8a77110</title>
<polygon fill="#b70d28" fill-opacity="0.439216" stroke="#b70d28" points="35,-512.5 35,-911.5 472,-911.5 472,-512.5 35,-512.5"/>
<text text-anchor="start" x="43" y="-896.3" font-family="Courier,monospace" font-size="14.00">12:</text>
<polyline fill="none" stroke="#b70d28" points="35,-888.5 472,-888.5 "/>
<text text-anchor="start" x="43" y="-873.3" font-family="Courier,monospace" font-size="14.00">%13 = load ptr, ptr %3, align 8</text>
<text text-anchor="start" x="43" y="-858.3" font-family="Courier,monospace" font-size="14.00"> %14 = load i32, ptr %6, align 4</text>
<text text-anchor="start" x="43" y="-843.3" font-family="Courier,monospace" font-size="14.00"> %15 = sext i32 %14 to i64</text>
<text text-anchor="start" x="43" y="-828.3" font-family="Courier,monospace" font-size="14.00"> %16 = getelementptr inbounds i32, ptr %13, i64 %15</text>
<text text-anchor="start" x="43" y="-813.3" font-family="Courier,monospace" font-size="14.00"> %17 = load i32, ptr %16, align 4</text>
<text text-anchor="start" x="43" y="-798.3" font-family="Courier,monospace" font-size="14.00"> %18 = sitofp i32 %17 to double</text>
<text text-anchor="start" x="43" y="-783.3" font-family="Courier,monospace" font-size="14.00"> %19 = call double @llvm.sin.f64(double %18)</text>
<text text-anchor="start" x="43" y="-768.3" font-family="Courier,monospace" font-size="14.00"> %20 = load ptr, ptr %3, align 8</text>
<text text-anchor="start" x="43" y="-753.3" font-family="Courier,monospace" font-size="14.00"> %21 = load i32, ptr %6, align 4</text>
<text text-anchor="start" x="43" y="-738.3" font-family="Courier,monospace" font-size="14.00"> %22 = sext i32 %21 to i64</text>
<text text-anchor="start" x="43" y="-723.3" font-family="Courier,monospace" font-size="14.00"> %23 = getelementptr inbounds i32, ptr %20, i64 %22</text>
<text text-anchor="start" x="43" y="-708.3" font-family="Courier,monospace" font-size="14.00"> %24 = load i32, ptr %23, align 4</text>
<text text-anchor="start" x="43" y="-693.3" font-family="Courier,monospace" font-size="14.00"> %25 = sitofp i32 %24 to double</text>
<text text-anchor="start" x="43" y="-678.3" font-family="Courier,monospace" font-size="14.00"> %26 = call double @llvm.cos.f64(double %25)</text>
<text text-anchor="start" x="43" y="-663.3" font-family="Courier,monospace" font-size="14.00"> %27 = fmul double %19, %26</text>
<text text-anchor="start" x="43" y="-648.3" font-family="Courier,monospace" font-size="14.00"> store double %27, ptr %7, align 8</text>
<text text-anchor="start" x="43" y="-633.3" font-family="Courier,monospace" font-size="14.00"> %28 = load ptr, ptr %3, align 8</text>
<text text-anchor="start" x="43" y="-618.3" font-family="Courier,monospace" font-size="14.00"> %29 = load i32, ptr %6, align 4</text>
<text text-anchor="start" x="43" y="-603.3" font-family="Courier,monospace" font-size="14.00"> %30 = sext i32 %29 to i64</text>
<text text-anchor="start" x="43" y="-588.3" font-family="Courier,monospace" font-size="14.00"> %31 = getelementptr inbounds i32, ptr %28, i64 %30</text>
<text text-anchor="start" x="43" y="-573.3" font-family="Courier,monospace" font-size="14.00"> %32 = load i32, ptr %31, align 4</text>
<text text-anchor="start" x="43" y="-558.3" font-family="Courier,monospace" font-size="14.00"> %33 = icmp slt i32 %32, 0</text>
<text text-anchor="start" x="43" y="-543.3" font-family="Courier,monospace" font-size="14.00"> br i1 %33, label %34, label %38, !prof !5</text>
<polyline fill="none" stroke="#b70d28" points="35,-535.5 472,-535.5 "/>
<text text-anchor="middle" x="144" y="-520.3" font-family="Courier,monospace" font-size="14.00">T</text>
<polyline fill="none" stroke="#b70d28" points="253,-512.5 253,-535.5 "/>
<text text-anchor="middle" x="362.5" y="-520.3" font-family="Courier,monospace" font-size="14.00">F</text>
</g>
<!-- Node0x55a5a8a76950&#45;&gt;Node0x55a5a8a77110 -->
<g id="edge2" class="edge">
<title>Node0x55a5a8a76950:s0&#45;&gt;Node0x55a5a8a77110</title>
<g id="a_edge2"><a xlink:title="8 &#45;&gt; 12&#10;Probability 99.99%">
<path fill="none" stroke="black" d="M316.5,-959.5C288.2,-959.5 270.12,-944.06 258.92,-920.91"/>
<polygon fill="black" stroke="black" points="262.11,-919.49 254.95,-911.68 255.68,-922.25 262.11,-919.49"/>
</a>
</g>
</g>
<!-- Node0x55a5a8a77170 -->
<g id="node4" class="node">
<title>Node0x55a5a8a77170</title>
<polygon fill="#f4987a" fill-opacity="0.439216" stroke="#3d50c3" points="528,-681.5 528,-742.5 825,-742.5 825,-681.5 528,-681.5"/>
<text text-anchor="start" x="536" y="-727.3" font-family="Courier,monospace" font-size="14.00">50:</text>
<polyline fill="none" stroke="#3d50c3" points="528,-719.5 825,-719.5 "/>
<text text-anchor="start" x="536" y="-704.3" font-family="Courier,monospace" font-size="14.00">%51 = load double, ptr %5, align 8</text>
<text text-anchor="start" x="536" y="-689.3" font-family="Courier,monospace" font-size="14.00"> ret double %51</text>
</g>
<!-- Node0x55a5a8a76950&#45;&gt;Node0x55a5a8a77170 -->
<g id="edge3" class="edge">
<title>Node0x55a5a8a76950:s1&#45;&gt;Node0x55a5a8a77170</title>
<g id="a_edge3"><a xlink:title="8 &#45;&gt; 50&#10;Probability 0.01%">
<path fill="none" stroke="black" d="M682.5,-959.5C764.47,-959.5 720.45,-821.57 693.07,-752.07"/>
<polygon fill="black" stroke="black" points="696.29,-750.71 689.33,-742.73 689.8,-753.32 696.29,-750.71"/>
</a>
</g>
</g>
<!-- Node0x55a5a8a78ad0 -->
<g id="node5" class="node">
<title>Node0x55a5a8a78ad0</title>
<polygon fill="#c7d7f0" fill-opacity="0.439216" stroke="#3d50c3" points="0,-369.5 0,-475.5 305,-475.5 305,-369.5 0,-369.5"/>
<text text-anchor="start" x="8" y="-460.3" font-family="Courier,monospace" font-size="14.00">34:</text>
<polyline fill="none" stroke="#3d50c3" points="0,-452.5 305,-452.5 "/>
<text text-anchor="start" x="8" y="-437.3" font-family="Courier,monospace" font-size="14.00">%35 = load double, ptr %7, align 8</text>
<text text-anchor="start" x="8" y="-422.3" font-family="Courier,monospace" font-size="14.00"> %36 = load double, ptr %5, align 8</text>
<text text-anchor="start" x="8" y="-407.3" font-family="Courier,monospace" font-size="14.00"> %37 = fadd double %36, %35</text>
<text text-anchor="start" x="8" y="-392.3" font-family="Courier,monospace" font-size="14.00"> store double %37, ptr %5, align 8</text>
<text text-anchor="start" x="8" y="-377.3" font-family="Courier,monospace" font-size="14.00"> br label %38</text>
</g>
<!-- Node0x55a5a8a77110&#45;&gt;Node0x55a5a8a78ad0 -->
<g id="edge4" class="edge">
<title>Node0x55a5a8a77110:s0&#45;&gt;Node0x55a5a8a78ad0</title>
<g id="a_edge4"><a xlink:title="12 &#45;&gt; 34&#10;Probability 0.00%">
<path fill="none" stroke="black" d="M143.5,-512C143.5,-503.56 143.91,-494.7 144.55,-485.97"/>
<polygon fill="black" stroke="black" points="148.06,-486.08 145.41,-475.82 141.08,-485.49 148.06,-486.08"/>
</a>
</g>
</g>
<!-- Node0x55a5a8a78b30 -->
<g id="node6" class="node">
<title>Node0x55a5a8a78b30</title>
<polygon fill="#b70d28" fill-opacity="0.439216" stroke="#b70d28" points="35,-151.5 35,-332.5 472,-332.5 472,-151.5 35,-151.5"/>
<text text-anchor="start" x="43" y="-317.3" font-family="Courier,monospace" font-size="14.00">38:</text>
<polyline fill="none" stroke="#b70d28" points="35,-309.5 472,-309.5 "/>
<text text-anchor="start" x="43" y="-294.3" font-family="Courier,monospace" font-size="14.00">%39 = load ptr, ptr %3, align 8</text>
<text text-anchor="start" x="43" y="-279.3" font-family="Courier,monospace" font-size="14.00"> %40 = load i32, ptr %6, align 4</text>
<text text-anchor="start" x="43" y="-264.3" font-family="Courier,monospace" font-size="14.00"> %41 = sext i32 %40 to i64</text>
<text text-anchor="start" x="43" y="-249.3" font-family="Courier,monospace" font-size="14.00"> %42 = getelementptr inbounds i32, ptr %39, i64 %41</text>
<text text-anchor="start" x="43" y="-234.3" font-family="Courier,monospace" font-size="14.00"> %43 = load i32, ptr %42, align 4</text>
<text text-anchor="start" x="43" y="-219.3" font-family="Courier,monospace" font-size="14.00"> %44 = sitofp i32 %43 to double</text>
<text text-anchor="start" x="43" y="-204.3" font-family="Courier,monospace" font-size="14.00"> %45 = load double, ptr %5, align 8</text>
<text text-anchor="start" x="43" y="-189.3" font-family="Courier,monospace" font-size="14.00"> %46 = fadd double %45, %44</text>
<text text-anchor="start" x="43" y="-174.3" font-family="Courier,monospace" font-size="14.00"> store double %46, ptr %5, align 8</text>
<text text-anchor="start" x="43" y="-159.3" font-family="Courier,monospace" font-size="14.00"> br label %47</text>
</g>
<!-- Node0x55a5a8a77110&#45;&gt;Node0x55a5a8a78b30 -->
<g id="edge5" class="edge">
<title>Node0x55a5a8a77110:s1&#45;&gt;Node0x55a5a8a78b30</title>
<g id="a_edge5"><a xlink:title="12 &#45;&gt; 38&#10;Probability 100.00%">
<path fill="none" stroke="black" d="M362.5,-512C362.5,-452.7 339.47,-391.08 314.58,-341.8"/>
<polygon fill="black" stroke="black" points="317.61,-340.03 309.92,-332.75 311.38,-343.24 317.61,-340.03"/>
</a>
</g>
</g>
<!-- Node0x55a5a8a78ad0&#45;&gt;Node0x55a5a8a78b30 -->
<g id="edge6" class="edge">
<title>Node0x55a5a8a78ad0&#45;&gt;Node0x55a5a8a78b30</title>
<g id="a_edge6"><a xlink:title="34 &#45;&gt; 38&#10;Probability 100.00%">
<path fill="none" stroke="black" d="M181.98,-369.39C186.98,-360.57 192.3,-351.15 197.71,-341.59"/>
<polygon fill="black" stroke="black" points="200.82,-343.22 202.69,-332.79 194.72,-339.77 200.82,-343.22"/>
</a>
</g>
</g>
<!-- Node0x55a5a8a79520 -->
<g id="node7" class="node">
<title>Node0x55a5a8a79520</title>
<polygon fill="#b70d28" fill-opacity="0.439216" stroke="#b70d28" points="240.5,-23.5 240.5,-114.5 512.5,-114.5 512.5,-23.5 240.5,-23.5"/>
<text text-anchor="start" x="248.5" y="-99.3" font-family="Courier,monospace" font-size="14.00">47:</text>
<polyline fill="none" stroke="#b70d28" points="240.5,-91.5 512.5,-91.5 "/>
<text text-anchor="start" x="248.5" y="-76.3" font-family="Courier,monospace" font-size="14.00">%48 = load i32, ptr %6, align 4</text>
<text text-anchor="start" x="248.5" y="-61.3" font-family="Courier,monospace" font-size="14.00"> %49 = add nsw i32 %48, 1</text>
<text text-anchor="start" x="248.5" y="-46.3" font-family="Courier,monospace" font-size="14.00"> store i32 %49, ptr %6, align 4</text>
<text text-anchor="start" x="248.5" y="-31.3" font-family="Courier,monospace" font-size="14.00"> br label %8, !llvm.loop !6</text>
</g>
<!-- Node0x55a5a8a78b30&#45;&gt;Node0x55a5a8a79520 -->
<g id="edge7" class="edge">
<title>Node0x55a5a8a78b30&#45;&gt;Node0x55a5a8a79520</title>
<g id="a_edge7"><a xlink:title="38 &#45;&gt; 47&#10;Probability 100.00%">
<path fill="none" stroke="black" d="M317.88,-151.49C324.91,-141.72 331.89,-132.01 338.46,-122.89"/>
<polygon fill="black" stroke="black" points="341.36,-124.85 344.35,-114.69 335.67,-120.77 341.36,-124.85"/>
</a>
</g>
</g>
<!-- Node0x55a5a8a79520&#45;&gt;Node0x55a5a8a76950 -->
<g id="edge8" class="edge">
<title>Node0x55a5a8a79520&#45;&gt;Node0x55a5a8a76950</title>
<g id="a_edge8"><a xlink:title="47 &#45;&gt; 8&#10;Probability 100.00%">
<path fill="none" stroke="black" d="M451.34,-114.62C463.05,-125.04 473.56,-137.2 480.5,-151 515.42,-220.49 505.85,-749.75 501.27,-938.17"/>
<polygon fill="black" stroke="black" points="497.77,-938.13 501.02,-948.21 504.77,-938.3 497.77,-938.13"/>
</a>
</g>
</g>
</g>
</svg>
