<?xml version="1.0" encoding="UTF-8" standalone="no"?>
<!DOCTYPE svg PUBLIC "-//W3C//DTD SVG 1.1//EN"
 "http://www.w3.org/Graphics/SVG/1.1/DTD/svg11.dtd">
<!-- Generated by graphviz version 2.43.0 (0)
 -->
<!-- Title: CFG for &#39;test&#39; function Pages: 1 -->
<svg width="794pt" height="929pt"
 viewBox="0.00 0.00 793.50 929.00" xmlns="http://www.w3.org/2000/svg" xmlns:xlink="http://www.w3.org/1999/xlink">
<g id="graph0" class="graph" transform="scale(1 1) rotate(0) translate(4 925)">
<title>CFG for &#39;test&#39; function</title>
<polygon fill="white" stroke="transparent" points="-4,4 -4,-925 789.5,-925 789.5,4 -4,4"/>
<text text-anchor="middle" x="392.75" y="-7.8" font-family="Times,serif" font-size="14.00">CFG for &#39;test&#39; function</text>
<!-- Node0x5576c9d55c10 -->
<g id="node1" class="node">
<title>Node0x5576c9d55c10</title>
<polygon fill="#f4987a" fill-opacity="0.439216" stroke="#3d50c3" points="509,-874.5 509,-920.5 616,-920.5 616,-874.5 509,-874.5"/>
<text text-anchor="start" x="517" y="-905.3" font-family="Courier,monospace" font-size="14.00">2:</text>
<polyline fill="none" stroke="#3d50c3" points="509,-897.5 616,-897.5 "/>
<text text-anchor="start" x="517" y="-882.3" font-family="Courier,monospace" font-size="14.00">br label %3</text>
</g>
<!-- Node0x5576c9d52a90 -->
<g id="node2" class="node">
<title>Node0x5576c9d52a90</title>
<polygon fill="#b70d28" fill-opacity="0.439216" stroke="#b70d28" points="339.5,-723.5 339.5,-837.5 785.5,-837.5 785.5,-723.5 339.5,-723.5"/>
<text text-anchor="start" x="347.5" y="-822.3" font-family="Courier,monospace" font-size="14.00">3:</text>
<polyline fill="none" stroke="#b70d28" points="339.5,-814.5 785.5,-814.5 "/>
<text text-anchor="start" x="347.5" y="-799.3" font-family="Courier,monospace" font-size="14.00">%.014 = phi i32 [ 0, %2 ], [ %30, %24 ]</text>
<text text-anchor="start" x="347.5" y="-784.3" font-family="Courier,monospace" font-size="14.00"> %.0 = phi double [ 0.000000e+00, %2 ], [ %29, %24 ]</text>
<text text-anchor="start" x="347.5" y="-769.3" font-family="Courier,monospace" font-size="14.00"> %4 = icmp ult i32 %.014, %1</text>
<text text-anchor="start" x="347.5" y="-754.3" font-family="Courier,monospace" font-size="14.00"> br i1 %4, label %5, label %31, !prof !4</text>
<polyline fill="none" stroke="#b70d28" points="339.5,-746.5 785.5,-746.5 "/>
<text text-anchor="middle" x="451" y="-731.3" font-family="Courier,monospace" font-size="14.00">T</text>
<polyline fill="none" stroke="#b70d28" points="562.5,-723.5 562.5,-746.5 "/>
<text text-anchor="middle" x="674" y="-731.3" font-family="Courier,monospace" font-size="14.00">F</text>
</g>
<!-- Node0x5576c9d55c10&#45;&gt;Node0x5576c9d52a90 -->
<g id="edge1" class="edge">
<title>Node0x5576c9d55c10&#45;&gt;Node0x5576c9d52a90</title>
<g id="a_edge1"><a xlink:title="2 &#45;&gt; 3&#10;Probability 100.00%">
<path fill="none" stroke="black" d="M562.5,-874.33C562.5,-866.48 562.5,-857.2 562.5,-847.59"/>
<polygon fill="black" stroke="black" points="566,-847.51 562.5,-837.51 559,-847.51 566,-847.51"/>
</a>
</g>
</g>
<!-- Node0x5576c9d55140 -->
<g id="node3" class="node">
<title>Node0x5576c9d55140</title>
<polygon fill="#b70d28" fill-opacity="0.439216" stroke="#b70d28" points="130,-557.5 130,-686.5 543,-686.5 543,-557.5 130,-557.5"/>
<text text-anchor="start" x="138" y="-671.3" font-family="Courier,monospace" font-size="14.00">5:</text>
<polyline fill="none" stroke="#b70d28" points="130,-663.5 543,-663.5 "/>
<text text-anchor="start" x="138" y="-648.3" font-family="Courier,monospace" font-size="14.00">%6 = sext i32 %.014 to i64</text>
<text text-anchor="start" x="138" y="-633.3" font-family="Courier,monospace" font-size="14.00"> %7 = getelementptr inbounds i32, ptr %0, i64 %6</text>
<text text-anchor="start" x="138" y="-618.3" font-family="Courier,monospace" font-size="14.00"> %8 = load i32, ptr %7, align 4</text>
<text text-anchor="start" x="138" y="-603.3" font-family="Courier,monospace" font-size="14.00"> %9 = icmp slt i32 %8, 0</text>
<text text-anchor="start" x="138" y="-588.3" font-family="Courier,monospace" font-size="14.00"> br i1 %9, label %10, label %23, !prof !5</text>
<polyline fill="none" stroke="#b70d28" points="130,-580.5 543,-580.5 "/>
<text text-anchor="middle" x="233" y="-565.3" font-family="Courier,monospace" font-size="14.00">T</text>
<polyline fill="none" stroke="#b70d28" points="336,-557.5 336,-580.5 "/>
<text text-anchor="middle" x="439.5" y="-565.3" font-family="Courier,monospace" font-size="14.00">F</text>
</g>
<!-- Node0x5576c9d52a90&#45;&gt;Node0x5576c9d55140 -->
<g id="edge2" class="edge">
<title>Node0x5576c9d52a90:s0&#45;&gt;Node0x5576c9d55140</title>
<g id="a_edge2"><a xlink:title="3 &#45;&gt; 5&#10;Probability 99.99%">
<path fill="none" stroke="black" d="M338.5,-734.5C319.11,-734.5 314.59,-717.44 316.26,-696.66"/>
<polygon fill="black" stroke="black" points="319.76,-696.92 317.49,-686.57 312.81,-696.07 319.76,-696.92"/>
</a>
</g>
</g>
<!-- Node0x5576c9d551e0 -->
<g id="node4" class="node">
<title>Node0x5576c9d551e0</title>
<polygon fill="#f4987a" fill-opacity="0.439216" stroke="#3d50c3" points="608.5,-599 608.5,-645 740.5,-645 740.5,-599 608.5,-599"/>
<text text-anchor="start" x="616.5" y="-629.8" font-family="Courier,monospace" font-size="14.00">31:</text>
<polyline fill="none" stroke="#3d50c3" points="608.5,-622 740.5,-622 "/>
<text text-anchor="start" x="616.5" y="-606.8" font-family="Courier,monospace" font-size="14.00">ret double %.0</text>
</g>
<!-- Node0x5576c9d52a90&#45;&gt;Node0x5576c9d551e0 -->
<g id="edge3" class="edge">
<title>Node0x5576c9d52a90:s1&#45;&gt;Node0x5576c9d551e0</title>
<g id="a_edge3"><a xlink:title="3 &#45;&gt; 31&#10;Probability 0.01%">
<path fill="none" stroke="black" d="M674.5,-723C674.5,-700.44 674.5,-675.02 674.5,-655.45"/>
<polygon fill="black" stroke="black" points="678,-655.24 674.5,-645.24 671,-655.24 678,-655.24"/>
</a>
</g>
</g>
<!-- Node0x5576c9d55570 -->
<g id="node5" class="node">
<title>Node0x5576c9d55570</title>
<polygon fill="#c7d7f0" fill-opacity="0.439216" stroke="#3d50c3" points="0,-294.5 0,-520.5 429,-520.5 429,-294.5 0,-294.5"/>
<text text-anchor="start" x="8" y="-505.3" font-family="Courier,monospace" font-size="14.00">10:</text>
<polyline fill="none" stroke="#3d50c3" points="0,-497.5 429,-497.5 "/>
<text text-anchor="start" x="8" y="-482.3" font-family="Courier,monospace" font-size="14.00">%11 = sext i32 %.014 to i64</text>
<text text-anchor="start" x="8" y="-467.3" font-family="Courier,monospace" font-size="14.00"> %12 = getelementptr inbounds i32, ptr %0, i64 %11</text>
<text text-anchor="start" x="8" y="-452.3" font-family="Courier,monospace" font-size="14.00"> %13 = load i32, ptr %12, align 4</text>
<text text-anchor="start" x="8" y="-437.3" font-family="Courier,monospace" font-size="14.00"> %14 = sitofp i32 %13 to double</text>
<text text-anchor="start" x="8" y="-422.3" font-family="Courier,monospace" font-size="14.00"> %15 = call double @llvm.sin.f64(double %14)</text>
<text text-anchor="start" x="8" y="-407.3" font-family="Courier,monospace" font-size="14.00"> %16 = sext i32 %.014 to i64</text>
<text text-anchor="start" x="8" y="-392.3" font-family="Courier,monospace" font-size="14.00"> %17 = getelementptr inbounds i32, ptr %0, i64 %16</text>
<text text-anchor="start" x="8" y="-377.3" font-family="Courier,monospace" font-size="14.00"> %18 = load i32, ptr %17, align 4</text>
<text text-anchor="start" x="8" y="-362.3" font-family="Courier,monospace" font-size="14.00"> %19 = sitofp i32 %18 to double</text>
<text text-anchor="start" x="8" y="-347.3" font-family="Courier,monospace" font-size="14.00"> %20 = call double @llvm.cos.f64(double %19)</text>
<text text-anchor="start" x="8" y="-332.3" font-family="Courier,monospace" font-size="14.00"> %21 = fmul double %15, %20</text>
<text text-anchor="start" x="8" y="-317.3" font-family="Courier,monospace" font-size="14.00"> %22 = fadd double %.0, %21</text>
<text text-anchor="start" x="8" y="-302.3" font-family="Courier,monospace" font-size="14.00"> br label %23</text>
</g>
<!-- Node0x5576c9d55140&#45;&gt;Node0x5576c9d55570 -->
<g id="edge4" class="edge">
<title>Node0x5576c9d55140:s0&#45;&gt;Node0x5576c9d55570</title>
<g id="a_edge4"><a xlink:title="5 &#45;&gt; 10&#10;Probability 0.00%">
<path fill="none" stroke="black" d="M232.5,-557C232.5,-548.41 232.2,-539.57 231.68,-530.68"/>
<polygon fill="black" stroke="black" points="235.16,-530.37 231,-520.63 228.18,-530.84 235.16,-530.37"/>
</a>
</g>
</g>
<!-- Node0x5576c9d555d0 -->
<g id="node6" class="node">
<title>Node0x5576c9d555d0</title>
<polygon fill="#b70d28" fill-opacity="0.439216" stroke="#b70d28" points="181,-196.5 181,-257.5 544,-257.5 544,-196.5 181,-196.5"/>
<text text-anchor="start" x="189" y="-242.3" font-family="Courier,monospace" font-size="14.00">23:</text>
<polyline fill="none" stroke="#b70d28" points="181,-234.5 544,-234.5 "/>
<text text-anchor="start" x="189" y="-219.3" font-family="Courier,monospace" font-size="14.00">%.1 = phi double [ %22, %10 ], [ %.0, %5 ]</text>
<text text-anchor="start" x="189" y="-204.3" font-family="Courier,monospace" font-size="14.00"> br label %24</text>
</g>
<!-- Node0x5576c9d55140&#45;&gt;Node0x5576c9d555d0 -->
<g id="edge5" class="edge">
<title>Node0x5576c9d55140:s1&#45;&gt;Node0x5576c9d555d0</title>
<g id="a_edge5"><a xlink:title="5 &#45;&gt; 23&#10;Probability 100.00%">
<path fill="none" stroke="black" d="M439.5,-557C439.5,-440.11 486.06,-400.33 437.5,-294 432.49,-283.03 424.67,-273.15 415.93,-264.58"/>
<polygon fill="black" stroke="black" points="418.16,-261.87 408.42,-257.69 413.43,-267.03 418.16,-261.87"/>
</a>
</g>
</g>
<!-- Node0x5576c9d55570&#45;&gt;Node0x5576c9d555d0 -->
<g id="edge6" class="edge">
<title>Node0x5576c9d55570&#45;&gt;Node0x5576c9d555d0</title>
<g id="a_edge6"><a xlink:title="10 &#45;&gt; 23&#10;Probability 100.00%">
<path fill="none" stroke="black" d="M307.39,-294.47C315.93,-284.17 324.11,-274.31 331.43,-265.48"/>
<polygon fill="black" stroke="black" points="334.21,-267.61 337.89,-257.68 328.82,-263.14 334.21,-267.61"/>
</a>
</g>
</g>
<!-- Node0x5576c9d52ec0 -->
<g id="node7" class="node">
<title>Node0x5576c9d52ec0</title>
<polygon fill="#b70d28" fill-opacity="0.439216" stroke="#b70d28" points="252,-23.5 252,-159.5 681,-159.5 681,-23.5 252,-23.5"/>
<text text-anchor="start" x="260" y="-144.3" font-family="Courier,monospace" font-size="14.00">24:</text>
<polyline fill="none" stroke="#b70d28" points="252,-136.5 681,-136.5 "/>
<text text-anchor="start" x="260" y="-121.3" font-family="Courier,monospace" font-size="14.00">%25 = sext i32 %.014 to i64</text>
<text text-anchor="start" x="260" y="-106.3" font-family="Courier,monospace" font-size="14.00"> %26 = getelementptr inbounds i32, ptr %0, i64 %25</text>
<text text-anchor="start" x="260" y="-91.3" font-family="Courier,monospace" font-size="14.00"> %27 = load i32, ptr %26, align 4</text>
<text text-anchor="start" x="260" y="-76.3" font-family="Courier,monospace" font-size="14.00"> %28 = sitofp i32 %27 to double</text>
<text text-anchor="start" x="260" y="-61.3" font-family="Courier,monospace" font-size="14.00"> %29 = fadd double %.1, %28</text>
<text text-anchor="start" x="260" y="-46.3" font-family="Courier,monospace" font-size="14.00"> %30 = add nsw i32 %.014, 1</text>
<text text-anchor="start" x="260" y="-31.3" font-family="Courier,monospace" font-size="14.00"> br label %3, !llvm.loop !6</text>
</g>
<!-- Node0x5576c9d555d0&#45;&gt;Node0x5576c9d52ec0 -->
<g id="edge7" class="edge">
<title>Node0x5576c9d555d0&#45;&gt;Node0x5576c9d52ec0</title>
<g id="a_edge7"><a xlink:title="23 &#45;&gt; 24&#10;Probability 100.00%">
<path fill="none" stroke="black" d="M385.58,-196.37C392.29,-187.76 399.93,-177.95 407.79,-167.87"/>
<polygon fill="black" stroke="black" points="410.73,-169.78 414.11,-159.74 405.21,-165.48 410.73,-169.78"/>
</a>
</g>
</g>
<!-- Node0x5576c9d52ec0&#45;&gt;Node0x5576c9d52a90 -->
<g id="edge8" class="edge">
<title>Node0x5576c9d52ec0&#45;&gt;Node0x5576c9d52a90</title>
<g id="a_edge8"><a xlink:title="24 &#45;&gt; 3&#10;Probability 100.00%">
<path fill="none" stroke="black" d="M532.8,-159.67C540.8,-171.04 547.79,-183.3 552.5,-196 618.28,-373.32 593.44,-602.3 575.17,-713.31"/>
<polygon fill="black" stroke="black" points="571.69,-712.92 573.48,-723.36 578.59,-714.08 571.69,-712.92"/>
</a>
</g>
</g>
</g>
</svg>
